<svg height="512" viewBox="0 0 58 58" width="512" xmlns="http://www.w3.org/2000/svg"><path d="M24.017 33.983c-5.536-5.536-6.786-11.072-7.068-13.29a1.988 1.988 0 01.571-1.664L22 14.551a2 2 0 00.282-2.475L15.149 1a2 2 0 00-2.591-.729L1.107 5.664a1.989 1.989 0 00-1.1 1.987c.6 5.7 3.085 19.712 16.855 33.483s27.78 16.255 33.483 16.855a1.989 1.989 0 001.987-1.1l5.393-11.451A2 2 0 0057 42.851L45.924 35.72a2 2 0 00-2.475.28l-4.478 4.48c-.436.439-1.05.65-1.664.571-2.218-.282-7.754-1.532-13.29-7.068z"/><path d="M43 0c-8.284 0-15 5.82-15 13a11.756 11.756 0 002.55 7.251L29 28l7.864-3.146A16.9 16.9 0 0043 26c8.284 0 15-5.82 15-13S51.284 0 43 0zm-8 15a2 2 0 110-4 2 2 0 010 4zm8 0a2 2 0 110-4 2 2 0 010 4zm8 0a2 2 0 110-4 2 2 0 010 4z"/></svg>